<svg width="24" height="24" viewBox="0 0 24 24" fill="none" xmlns="http://www.w3.org/2000/svg">
<g id="information 1">
<g id="Layer 2">
<path id="Vector" d="M20.2201 4.63C18.7901 3 15.7201 2 12.0001 2C8.28012 2 5.21012 3 3.78012 4.63C1.40012 7.39 1.40012 16.63 3.78012 19.37C5.21012 21 8.28012 22 12.0001 22C15.7201 22 18.7901 21 20.2201 19.37C22.6001 16.61 22.6001 7.39 20.2201 4.63ZM12.0001 6.75C12.2473 6.75 12.489 6.82331 12.6946 6.96066C12.9001 7.09801 13.0604 7.29324 13.155 7.52165C13.2496 7.75005 13.2743 8.00139 13.2261 8.24386C13.1779 8.48634 13.0588 8.70907 12.884 8.88388C12.7092 9.0587 12.4865 9.17775 12.244 9.22598C12.0015 9.27421 11.7502 9.24946 11.5218 9.15485C11.2934 9.06024 11.0981 8.90002 10.9608 8.69446C10.8234 8.4889 10.7501 8.24723 10.7501 8C10.7501 7.66848 10.8818 7.35054 11.1162 7.11612C11.3507 6.8817 11.6686 6.75 12.0001 6.75ZM13.0001 17.5H11.0001C10.7349 17.5 10.4805 17.3946 10.293 17.2071C10.1055 17.0196 10.0001 16.7652 10.0001 16.5C10.0001 16.2348 10.1055 15.9804 10.293 15.7929C10.4805 15.6054 10.7349 15.5 11.0001 15.5V12.5C10.7349 12.5 10.4805 12.3946 10.293 12.2071C10.1055 12.0196 10.0001 11.7652 10.0001 11.5C10.0001 11.2348 10.1055 10.9804 10.293 10.7929C10.4805 10.6054 10.7349 10.5 11.0001 10.5H12.0001C12.2653 10.5 12.5197 10.6054 12.7072 10.7929C12.8948 10.9804 13.0001 11.2348 13.0001 11.5V15.5C13.2653 15.5 13.5197 15.6054 13.7072 15.7929C13.8948 15.9804 14.0001 16.2348 14.0001 16.5C14.0001 16.7652 13.8948 17.0196 13.7072 17.2071C13.5197 17.3946 13.2653 17.5 13.0001 17.5Z" fill="black"/>
</g>
</g>
</svg>
